<?xml version="1.0" encoding="UTF-8" standalone="no"?>
<svg
   width="108pt"
   height="108pt"
   viewBox="0 0 38.100001 38.100001"
   version="1.1"
   id="svg8"
   inkscape:version="1.3 (0e150ed, 2023-07-21)"
   sodipodi:docname="favicon-monochrome.svg"
   inkscape:export-filename="favicon-512x512px-monochrome.png"
   inkscape:export-xdpi="341.33334"
   inkscape:export-ydpi="341.33334"
   xmlns:inkscape="http://www.inkscape.org/namespaces/inkscape"
   xmlns:sodipodi="http://sodipodi.sourceforge.net/DTD/sodipodi-0.dtd"
   xmlns="http://www.w3.org/2000/svg"
   xmlns:svg="http://www.w3.org/2000/svg"
   xmlns:rdf="http://www.w3.org/1999/02/22-rdf-syntax-ns#"
   xmlns:cc="http://creativecommons.org/ns#"
   xmlns:dc="http://purl.org/dc/elements/1.1/">
  <defs
     id="defs2" />
  <sodipodi:namedview
     units="px"
     fit-margin-bottom="0"
     fit-margin-right="0"
     fit-margin-left="0"
     fit-margin-top="0"
     id="base"
     pagecolor="#ffffff"
     bordercolor="#666666"
     borderopacity="1.0"
     inkscape:pageopacity="0.0"
     inkscape:pageshadow="2"
     inkscape:zoom="3.959798"
     inkscape:cx="55.810928"
     inkscape:cy="81.191011"
     inkscape:document-units="mm"
     inkscape:current-layer="layer1"
     inkscape:document-rotation="0"
     showgrid="false"
     inkscape:window-width="1632"
     inkscape:window-height="1022"
     inkscape:window-x="9"
     inkscape:window-y="30"
     inkscape:window-maximized="0"
     inkscape:showpageshadow="2"
     inkscape:pagecheckerboard="0"
     inkscape:deskcolor="#d1d1d1" />
  <metadata
     id="metadata5">
    <rdf:RDF>
      <cc:Work
         rdf:about="">
        <dc:format>image/svg+xml</dc:format>
        <dc:type
           rdf:resource="http://purl.org/dc/dcmitype/StillImage" />
      </cc:Work>
    </rdf:RDF>
  </metadata>
  <g
     transform="translate(-1.5343704,-1.5343704)"
     inkscape:label="Layer 1"
     inkscape:groupmode="layer"
     id="layer1">
    <path
       style="font-style:italic;font-size:9.53813px;line-height:1;font-family:Georgia;-inkscape-font-specification:'Georgia Italic';letter-spacing:0px;word-spacing:0px;baseline-shift:baseline;stroke-width:0.209631;stroke-linejoin:round;stroke-miterlimit:4.3"
       d="m 18.249699,20.332491 q 0,0.493673 -0.312038,0.847627 -0.307381,0.353954 -0.898857,0.563532 -0.433128,0.158348 -0.87557,0.256151 -0.442443,0.0978 -0.978031,0.163005 0,0.735852 0.270122,1.127065 0.274781,0.386555 0.801054,0.386555 0.465729,0 0.819683,-0.232865 0.358612,-0.232864 0.703251,-0.693936 l 0.265466,0.195606 q -0.372584,0.568189 -0.931458,0.908172 -0.558875,0.339982 -1.159666,0.339982 -0.82434,0 -1.262125,-0.461072 -0.433128,-0.461072 -0.433128,-1.308698 0,-0.586819 0.181634,-1.11775 0.186292,-0.535588 0.540246,-0.978031 0.344639,-0.433128 0.842969,-0.698593 0.502988,-0.265466 1.108435,-0.265466 0.67065,0 0.992003,0.27478 0.32601,0.270123 0.32601,0.693936 z m -0.856941,-0.116432 q 0,-0.181634 -0.05123,-0.284095 -0.05123,-0.107117 -0.130404,-0.158347 -0.08383,-0.05589 -0.176977,-0.06986 -0.09315,-0.01397 -0.190949,-0.01397 -0.558875,0 -1.033919,0.614763 -0.470386,0.614762 -0.596133,1.532248 0.326011,-0.04657 0.735852,-0.130404 0.409842,-0.08849 0.679965,-0.228207 0.386555,-0.200264 0.572846,-0.512302 0.190949,-0.316696 0.190949,-0.749824 z"
       id="text1"
       aria-label="e" />
    <path
       style="font-style:italic;font-size:7.05565px;line-height:1;font-family:Georgia;-inkscape-font-specification:'Georgia Italic';letter-spacing:0px;word-spacing:0px;baseline-shift:baseline;stroke-width:0.209631;stroke-linejoin:round;stroke-miterlimit:4.3"
       d="m 21.390683,16.677896 q 0,0.0689 -0.01723,0.179148 -0.01378,0.110244 -0.03445,0.203263 -0.12058,0.599455 -0.24116,1.174793 -0.117135,0.575339 -0.268721,1.216135 -0.182592,0.764822 -0.685583,1.250587 -0.499546,0.485765 -1.064549,0.485765 -0.303172,0 -0.444423,-0.117135 -0.144696,-0.11369 -0.144696,-0.289392 0,-0.148141 0.08957,-0.261831 0.08957,-0.11369 0.258385,-0.11369 0.1068,0 0.189483,0.04823 0.07924,0.04823 0.141251,0.12058 0.04823,0.05857 0.110244,0.158477 0.05857,0.09991 0.103355,0.172257 0.244605,-0.01378 0.437533,-0.344514 0.196373,-0.327289 0.341069,-0.97842 0.14125,-0.637352 0.244605,-1.109336 0.106799,-0.47543 0.223934,-1.08522 0.02756,-0.14125 0.04823,-0.265276 0.02067,-0.12747 0.02067,-0.227379 0,-0.192928 -0.06546,-0.25494 -0.06201,-0.06546 -0.258386,-0.06546 -0.08957,0 -0.227379,0.03101 -0.134361,0.02756 -0.196373,0.04479 l 0.05168,-0.220489 q 0.268721,-0.12058 0.492655,-0.182593 0.22738,-0.06546 0.358295,-0.06546 0.282502,0 0.409972,0.13436 0.12747,0.134361 0.12747,0.36174 z m 0.461649,-1.798364 q 0,0.196373 -0.12747,0.344514 -0.12747,0.144696 -0.316953,0.144696 -0.175702,0 -0.303173,-0.137805 -0.12747,-0.141251 -0.12747,-0.320399 0,-0.189482 0.12747,-0.330733 0.127471,-0.141251 0.303173,-0.141251 0.196373,0 0.320398,0.134361 0.124025,0.130915 0.124025,0.306617 z m 3.727643,1.161013 q 0,0.671803 -0.206708,1.450405 -0.206709,0.775156 -0.6029,1.360831 -0.344514,0.499545 -0.709699,0.706254 -0.36174,0.203263 -0.751041,0.203263 -0.323843,0 -0.558113,-0.134361 -0.23427,-0.137805 -0.378965,-0.36863 -0.148142,-0.237714 -0.213599,-0.551222 -0.06546,-0.313508 -0.06546,-0.671803 0,-0.647687 0.192928,-1.415953 0.192928,-0.771712 0.606345,-1.391838 0.282502,-0.420307 0.651132,-0.664912 0.36863,-0.244605 0.816498,-0.244605 0.330734,0 0.561558,0.137806 0.23427,0.13436 0.378966,0.36863 0.144696,0.230824 0.210154,0.540887 0.0689,0.310063 0.0689,0.675248 z m -0.647686,-0.389301 q 0,-0.578784 -0.168812,-0.833724 -0.168812,-0.254941 -0.451314,-0.254941 -0.192928,0 -0.38241,0.117135 -0.189483,0.11369 -0.372076,0.385856 -0.179147,0.261831 -0.334178,0.692473 -0.155032,0.430643 -0.279057,1.040433 h 1.877602 q 0.06546,-0.347959 0.08613,-0.620125 0.02412,-0.275612 0.02412,-0.527107 z m -0.168812,1.440069 h -1.877602 l -0.02412,0.12747 q -0.07579,0.392747 -0.103355,0.678693 -0.02412,0.282502 -0.02412,0.509881 0,0.561558 0.151587,0.83717 0.151586,0.272166 0.468539,0.272166 0.196373,0 0.392746,-0.117135 0.196373,-0.12058 0.372075,-0.385856 0.175703,-0.272166 0.334179,-0.699364 0.158477,-0.430642 0.285947,-1.095555 z"
       id="text2"
       aria-label="jθ " />
    <ellipse
       cy="20.585941"
       cx="20.688986"
       id="path847-6"
       style="fill:none;fill-opacity:1;fill-rule:evenodd;stroke:#000000;stroke-width:1.6;stroke-linecap:round;stroke-linejoin:round;stroke-miterlimit:4;stroke-dasharray:none;stroke-opacity:0.457831"
       rx="11.772615"
       ry="11.772572" />
  </g>
</svg>
